HIERARCHY
ROOT Hips
{
	OFFSET 55.310501 45.591206 43.872097
	CHANNELS 6 Xposition Yposition Zposition Zrotation Xrotation Yrotation
	JOINT Chest
	{
		OFFSET -0.153500 1.163101 7.852402
		CHANNELS 6 Xposition Yposition Zposition Zrotation Xrotation Yrotation
		JOINT Chest2
		{
			OFFSET 0.000000 0.000000 3.343300
			CHANNELS 6 Xposition Yposition Zposition Zrotation Xrotation Yrotation
			JOINT Neck
			{
				OFFSET 0.000000 0.000000 7.785500
				CHANNELS 6 Xposition Yposition Zposition Zrotation Xrotation Yrotation
				JOINT Head
				{
					OFFSET 0.000000 0.000000 2.173901
					CHANNELS 6 Xposition Yposition Zposition Zrotation Xrotation Yrotation
					End Site
					{
						OFFSET 0.000000 0.000000 10.528198
					}
				}
			}
			JOINT LeftCollar
			{
				OFFSET 2.676300 -1.652401 4.938301
				CHANNELS 6 Xposition Yposition Zposition Zrotation Xrotation Yrotation
				JOINT LeftShoulder
				{
					OFFSET 4.299000 0.000000 0.000000
					CHANNELS 6 Xposition Yposition Zposition Zrotation Xrotation Yrotation
					JOINT LeftElbow
					{
						OFFSET 0.000000 0.000000 -10.245102
						CHANNELS 6 Xposition Yposition Zposition Zrotation Xrotation Yrotation
						JOINT LeftWrist
						{
							OFFSET 0.000000 0.000000 -12.703300
							CHANNELS 6 Xposition Yposition Zposition Zrotation Xrotation Yrotation
							End Site
							{
								OFFSET 0.000000 0.000000 -2.173901
							}
						}
					}
				}
			}
			JOINT RightCollar
			{
				OFFSET -2.534599 -1.686401 5.195000
				CHANNELS 6 Xposition Yposition Zposition Zrotation Xrotation Yrotation
				JOINT RightShoulder
				{
					OFFSET -4.144100 0.000000 0.000000
					CHANNELS 6 Xposition Yposition Zposition Zrotation Xrotation Yrotation
					JOINT RightElbow
					{
						OFFSET 0.000000 0.000000 -10.116501
						CHANNELS 6 Xposition Yposition Zposition Zrotation Xrotation Yrotation
						JOINT RightWrist
						{
							OFFSET 0.000000 0.000000 -12.937801
							CHANNELS 6 Xposition Yposition Zposition Zrotation Xrotation Yrotation
							End Site
							{
								OFFSET 0.000000 0.000000 -2.173901
							}
						}
					}
				}
			}
		}
	}
	JOINT LeftHip
	{
		OFFSET 2.175598 0.064499 -2.662899
		CHANNELS 6 Xposition Yposition Zposition Zrotation Xrotation Yrotation
		JOINT LeftKnee
		{
			OFFSET 0.000000 -0.000004 -18.585800
			CHANNELS 6 Xposition Yposition Zposition Zrotation Xrotation Yrotation
			JOINT LeftAnkle
			{
				OFFSET 0.000000 0.000000 -18.979500
				CHANNELS 6 Xposition Yposition Zposition Zrotation Xrotation Yrotation
				End Site
				{
					OFFSET 0.000000 -9.264000 0.000000
				}
			}
		}
	}
	JOINT RightHip
	{
		OFFSET -2.092400 -0.058102 -2.581200
		CHANNELS 6 Xposition Yposition Zposition Zrotation Xrotation Yrotation
		JOINT RightKnee
		{
			OFFSET 0.000000 -0.000004 -18.665001
			CHANNELS 6 Xposition Yposition Zposition Zrotation Xrotation Yrotation
			JOINT RightAnkle
			{
				OFFSET 0.000000 0.000000 -18.566601
				CHANNELS 6 Xposition Yposition Zposition Zrotation Xrotation Yrotation
				End Site
				{
					OFFSET 0.000000 -8.497601 0.000000
				}
			}
		}
	}
}
MOTION
Frames: 4
Frame Time: 0.041667
56.285397 82.979599 43.672398 978.421429 -2.466195 0.073543 -0.153504 1.163097 7.852406 -2.478933 10.851113 -0.519598 0.000016 -0.000006 3.343300 -0.624835 -2.753387 -0.007441 -0.000006 0.000004 7.785501 -43.568725 -14.456505 10.185699 0.000003 0.000001 2.173912 -1.191517 -4.691712 -7.271401 2.676283 -1.652400 4.938299 -4.564654 0.616215 4.968377 4.299006 0.000001 -0.000003 -40.259430 9.182854 -24.189178 -0.000003 0.000002 -10.245108 -4.694054 716.888896 1.928806 0.000003 -0.000002 -12.703304 1295.167682 -183.744929 549.702695 -2.534607 -1.686399 5.194998 6.730699 1.690248 -4.101814 -4.144108 -0.000001 -0.000001 30.328950 7.879094 19.235920 0.000000 0.000005 -10.116500 -34.839367 -2.427607 -2.711605 -0.000002 -0.000010 -12.937806 -58.810032 -378.251532 -17.671545 2.175595 0.064487 -2.662895 -319.733176 -29.112271 2.830920 0.000001 -0.000002 -18.585808 158.418137 -228.782746 -168.520042 -0.000007 0.000007 -18.979517 379.621723 6.840749 -127.342703 -2.092403 -0.058112 -2.581201 362.967946 5.209639 0.044891 0.000010 -0.000003 -18.665009 -1125.749812 14.069897 -5.221228 0.000003 0.000003 -18.566603 732.306272 21.480984 17.712458
56.157299 83.037613 43.644394 979.677310 -2.375066 0.070870 -0.153497 1.163103 7.852408 -2.257969 10.796927 -0.504092 -0.000001 -0.000006 3.343297 -0.656737 -2.742687 -0.008152 -0.000017 0.000010 7.785502 -43.410121 -14.375077 9.955297 -0.000010 -0.000000 2.173914 -1.482500 -4.605101 -7.005209 2.676281 -1.652387 4.938303 -4.539896 0.618033 4.921047 4.299000 0.000006 0.000006 -40.400470 9.070019 -24.012345 -0.000007 -0.000008 -10.245102 -4.659415 716.873597 1.975112 -0.000006 -0.000013 -12.703294 1294.866607 -183.753030 549.872958 -2.534605 -1.686387 5.195001 6.744870 1.706166 -3.994738 -4.144115 -0.000006 -0.000006 31.473884 8.049141 18.969150 0.000009 0.000014 -10.116497 -32.981433 -2.486286 -2.703187 -0.000015 0.000000 -12.937799 -59.744812 -378.085367 -17.708500 2.175598 0.064503 -2.662897 -320.136513 -28.626206 2.525351 -0.000013 -0.000002 -18.585804 162.262550 -225.677824 -170.091791 -0.000006 0.000002 -18.979517 377.941988 6.627453 -127.367059 -2.092390 -0.058104 -2.581194 363.243858 5.351707 -0.225787 -0.000007 -0.000005 -18.664997 -1126.350104 13.873681 -5.256458 -0.000006 -0.000001 -18.566593 731.456214 21.282402 17.500878
56.018200 83.087494 43.614494 981.051763 -2.332804 0.069691 -0.153498 1.163106 7.852401 -2.060185 10.786874 -0.484436 0.000002 0.000002 3.343304 -0.850110 -2.756881 0.351499 0.000002 0.000004 7.785505 -42.225913 -13.962014 9.229030 -0.000009 0.000002 2.173904 -2.251402 -4.509562 -6.382124 2.676294 -1.652396 4.938303 -4.505921 0.793511 4.566877 4.299007 0.000004 0.000000 -40.557578 8.960354 -23.966072 -0.000011 0.000002 -10.245108 -4.543923 716.809502 2.022251 -0.000010 0.000002 -12.703301 1294.560396 -183.773630 550.018632 -2.534597 -1.686397 5.195003 6.835099 1.669197 -4.359866 -4.144108 0.000008 0.000001 32.375059 8.220091 18.809892 0.000006 0.000002 -10.116499 -31.009486 -2.560483 -2.642226 0.000008 -0.000001 -12.937802 -60.035696 -377.924230 -17.958251 2.175599 0.064496 -2.662899 -321.024055 -27.992397 2.076022 -0.000010 -0.000002 -18.585794 165.657291 -222.501895 -171.035368 -0.000003 0.000002 -18.979511 376.614527 6.514491 -127.341132 -2.092391 -0.058105 -2.581196 363.440458 5.522742 -0.471500 0.000004 -0.000008 -18.665010 -1126.890617 13.739399 -5.245912 0.000001 -0.000004 -18.566607 730.649924 21.083703 17.226091
55.869099 83.129791 43.584297 982.529925 -2.363000 0.070574 -0.153507 1.163104 7.852407 -1.868079 10.835776 -0.437733 0.000004 0.000000 3.343303 -1.004712 -2.798479 0.274207 0.000006 -0.000003 7.785506 -39.425921 -13.683673 8.584523 -0.000008 -0.000000 2.173909 -3.778747 -4.531691 -5.435074 2.676298 -1.652402 4.938307 -4.718138 1.081142 4.722248 4.298992 -0.000003 -0.000004 -40.644099 8.837721 -24.073056 0.000004 0.000002 -10.245107 -4.372687 716.752839 2.063311 0.000002 0.000000 -12.703293 1294.254841 -183.779736 550.101032 -2.534598 -1.686405 5.195008 6.905147 1.699995 -4.539652 -4.144098 0.000006 0.000002 32.931313 8.452865 18.828520 0.000002 0.000007 -10.116499 -29.249701 -2.630508 -2.542925 0.000003 -0.000004 -12.937795 -59.271057 -377.899040 -17.727676 2.175591 0.064491 -2.662904 -322.505140 -27.212753 1.377297 -0.000004 0.000002 -18.585794 168.957351 -219.319259 -171.531199 -0.000008 -0.000016 -18.979513 375.618303 6.479035 -127.288375 -2.092406 -0.058112 -2.581198 363.533349 5.762015 -0.684216 -0.000018 -0.000011 -18.664993 -1127.262617 13.717692 -5.240188 0.000010 0.000004 -18.566603 729.742547 20.799009 16.902876
